<?xml version="1.0" encoding="UTF-8" standalone="no"?>
<svg width="100%" height="100%" viewBox="0 0 400 400" version="1.1" xmlns="http://www.w3.org/2000/svg" xmlns:xlink="http://www.w3.org/1999/xlink" xml:space="preserve" xmlns:serif="http://www.serif.com/" style="fill-rule:evenodd;clip-rule:evenodd;stroke-linejoin:round;stroke-miterlimit:2;">
	<g transform="matrix(0.641283,-0.370245,0.641283,0.370245,35.831618,294.782659)">
		<rect x="0" y="0" width="256" height="256" style="fill:rgb(247,93,0);" />
	</g>
	<g transform="matrix(0.641283,0.370245,-0,0.74049,200,10.434681)">
		<rect x="0" y="0" width="256" height="256" style="fill:rgb(247,197,0);" />
	</g>
	<g transform="matrix(0.906911,0,0,0.906911,-571.018712,-650.541618)">
		<g transform="matrix(0.707107,-0.408248,0.707107,0.408248,669.140078,833.333333)">
			<rect x="0" y="0" width="256" height="256" style="fill:rgb(16,18,20);" />
		</g>
		<g transform="matrix(0.437025,-0.252317,0.437025,0.252317,754.450565,833.585502)">
			<path d="M0.142,66.016C-0.469,62.994 0.915,59.795 3.804,58.171L105.718,0.987C107.507,-0.017 109.625,-0.267 111.599,0.293C112.508,0.434 113.384,0.736 114.186,1.186L216.095,58.37C218.688,59.826 220.069,62.547 219.887,65.272C220.42,68.241 219.044,71.348 216.215,72.942L183.534,91.37L211.207,106.899C213.758,108.33 215.077,111.05 214.794,113.731C214.904,115.985 213.896,118.268 211.276,119.745L114.262,174.448C113.49,174.884 112.644,175.175 111.767,175.306C109.886,175.839 107.868,175.6 106.165,174.641L9.155,119.942C6.62,118.513 5.595,116.329 5.63,114.148C5.062,111.281 6.38,108.25 9.122,106.71L36.332,91.442L3.89,73.15C1.232,71.652 -0.143,68.816 0.142,66.016ZM50.733,99.562L26.215,113.32L110.043,160.586L193.823,113.345L169.133,99.491L114.306,130.407C113.494,130.864 112.606,131.17 111.685,131.308C109.709,131.869 107.59,131.617 105.8,130.61L50.733,99.562ZM205.593,165.181L113.831,216.924C113.099,217.336 112.298,217.612 111.467,217.739C109.689,218.243 107.781,218.015 106.172,217.107L14.406,165.367C11.15,163.531 10.033,159.463 11.913,156.28C13.797,153.097 17.961,152.009 21.217,153.845L109.836,203.813L198.782,153.659C202.041,151.823 206.206,152.914 208.086,156.094C209.966,159.277 208.853,163.345 205.593,165.181Z" style="fill:white;" />
		</g>
	</g>
	<g transform="matrix(0.641283,0.370245,-0,0.74049,-416.486476,-867.785898)">
		<g transform="matrix(1,0,0,1,705.333333,961.333333)">
			<rect x="0" y="0" width="256" height="256" style="fill:rgb(49,120,198);" />
		</g>
		<g transform="matrix(1,0,0,1,705.333333,961.333333)">
			<path d="M150.518,200.475L150.518,228.095C155.01,230.397 160.323,232.123 166.456,233.274C172.589,234.425 179.053,235 185.849,235C192.471,235 198.763,234.367 204.723,233.101C210.683,231.835 215.91,229.749 220.401,226.844C224.893,223.938 228.449,220.14 231.07,215.45C233.69,210.761 235,204.964 235,198.059C235,193.053 234.251,188.665 232.754,184.896C231.273,181.153 229.072,177.736 226.275,174.841C223.454,171.906 220.07,169.274 216.126,166.943C212.181,164.613 207.732,162.412 202.779,160.341C199.151,158.844 195.898,157.392 193.018,155.982C190.139,154.572 187.691,153.134 185.676,151.666C183.66,150.199 182.105,148.645 181.011,147.005C179.917,145.365 179.37,143.51 179.37,141.438C179.37,139.539 179.859,137.828 180.838,136.303C181.817,134.778 183.2,133.469 184.985,132.376C186.77,131.282 188.958,130.434 191.55,129.829C194.141,129.225 197.021,128.923 200.188,128.923C202.492,128.923 204.925,129.096 207.487,129.441C210.05,129.786 212.627,130.318 215.219,131.038C217.803,131.754 220.329,132.663 222.777,133.757C225.151,134.809 227.421,136.08 229.558,137.554L229.558,111.747C225.354,110.136 220.761,108.942 215.78,108.165C210.799,107.388 205.083,107 198.633,107C192.068,107 185.849,107.705 179.975,109.115C174.101,110.524 168.932,112.725 164.469,115.717C160.006,118.71 156.479,122.522 153.887,127.154C151.296,131.786 150,137.324 150,143.769C150,151.997 152.375,159.017 157.127,164.829C161.878,170.64 169.09,175.56 178.765,179.588C182.337,181.043 185.879,182.568 189.39,184.163C192.673,185.659 195.509,187.212 197.899,188.823C200.289,190.434 202.175,192.189 203.557,194.088C204.939,195.987 205.63,198.145 205.63,200.562C205.641,202.301 205.194,204.013 204.334,205.525C203.471,207.049 202.16,208.373 200.404,209.495C198.648,210.617 196.459,211.494 193.839,212.127C191.219,212.76 188.152,213.077 184.639,213.077C178.65,213.077 172.719,212.027 166.845,209.926C160.97,207.826 155.528,204.676 150.518,200.475ZM104.482,131.742L140,131.742L140,109L41,109L41,131.742L76.345,131.742L76.345,233L104.482,233L104.482,131.742Z" style="fill:white;fill-rule:nonzero;" />
		</g>
	</g>
</svg>
