<?xml version="1.0" encoding="UTF-8" standalone="no"?>
<!DOCTYPE svg PUBLIC "-//W3C//DTD SVG 1.1//EN" "http://www.w3.org/Graphics/SVG/1.1/DTD/svg11.dtd">
<svg width="100%" height="100%" viewBox="0 0 256 256" version="1.1" xmlns="http://www.w3.org/2000/svg" xmlns:xlink="http://www.w3.org/1999/xlink" xml:space="preserve" xmlns:serif="http://www.serif.com/" style="fill-rule:evenodd;clip-rule:evenodd;stroke-linejoin:round;stroke-miterlimit:2;">
	<g>
		<path d="M128,256l-110.851,-64l110.851,-64l110.851,64l-110.851,64Z" style="fill:#f75d00;" />
		<path d="M128,128l0,-128l110.851,64l0,128l-110.851,-64Z" style="fill:#f7c500;" />
		<g>
			<path d="M128,128l-110.851,-64l110.851,-64l110.851,64l-110.851,64Z" style="fill:#00000;" />
			<path d="M87.096,74.333c-0.972,-0.372 -1.458,-1.081 -1.12,-1.778l11.971,-24.583c0.21,-0.432 0.71,-0.798 1.388,-1.016c0.281,-0.119 0.596,-0.207 0.931,-0.262l42.577,-6.91c1.083,-0.176 2.181,0.031 2.862,0.48c0.937,0.377 1.4,1.069 1.07,1.753l-3.814,7.897l11.562,-1.877c1.066,-0.173 2.147,0.043 2.788,0.501c0.633,0.331 0.974,0.84 0.668,1.473l-11.323,23.442c-0.09,0.187 -0.239,0.362 -0.438,0.518c-0.361,0.373 -0.965,0.648 -1.677,0.763l-40.601,6.538c-1.061,0.171 -1.92,-0.008 -2.494,-0.351c-0.919,-0.355 -1.378,-1.027 -1.056,-1.689l3.196,-6.563l-13.577,2.186c-1.112,0.179 -2.239,-0.047 -2.912,-0.523Zm22.517,-2.634l-2.88,5.914l35.084,-5.649l9.779,-20.244l-10.315,1.674l-6.399,13.248c-0.095,0.196 -0.251,0.38 -0.46,0.544c-0.379,0.392 -1.013,0.681 -1.762,0.801l-23.046,3.711Zm59.005,-13.789l-10.71,22.173c-0.086,0.177 -0.226,0.343 -0.415,0.491c-0.341,0.353 -0.912,0.612 -1.586,0.72l-38.405,6.184c-1.363,0.219 -2.75,-0.237 -3.099,-1.019c-0.348,-0.783 0.476,-1.594 1.838,-1.814l37.089,-5.972l10.382,-21.493c0.381,-0.787 1.787,-1.262 3.142,-1.061c1.355,0.201 2.146,1.002 1.765,1.789Z" style="fill:#fff;" />
		</g>
		<g>
			<path d="M17.149,192l0,-128l110.851,64l0,128l-110.851,-64Z" style="fill:#3178c6;" />
			<path d="M82.325,201.867l0,13.81c1.945,2.274 4.246,4.465 6.901,6.574c2.656,2.109 5.455,4.012 8.397,5.711c2.867,1.656 5.592,2.912 8.173,3.769c2.581,0.857 4.844,1.121 6.789,0.791c1.945,-0.33 3.485,-1.34 4.62,-3.03c1.134,-1.69 1.702,-4.26 1.702,-7.713c0,-2.503 -0.324,-4.884 -0.973,-7.143c-0.641,-2.242 -1.594,-4.5 -2.805,-6.647c-1.222,-2.173 -2.687,-4.335 -4.395,-6.486c-1.708,-2.151 -3.635,-4.364 -5.779,-6.638c-1.571,-1.656 -2.98,-3.195 -4.227,-4.62c-1.247,-1.425 -2.307,-2.756 -3.179,-3.994c-0.873,-1.237 -1.546,-2.403 -2.02,-3.497c-0.474,-1.094 -0.711,-2.158 -0.711,-3.194c0,-0.95 0.212,-1.683 0.636,-2.2c0.424,-0.518 1.023,-0.827 1.796,-0.927c0.773,-0.101 1.72,0.022 2.843,0.368c1.122,0.346 2.369,0.915 3.74,1.707c0.998,0.576 2.051,1.271 3.161,2.084c1.11,0.813 2.226,1.724 3.348,2.731c1.119,1.004 2.213,2.09 3.273,3.249c1.028,1.119 2.011,2.322 2.936,3.594l0,-12.904c-1.82,-1.856 -3.809,-3.602 -5.966,-5.236c-2.157,-1.634 -4.632,-3.257 -7.425,-4.869c-2.843,-1.641 -5.536,-2.844 -8.079,-3.607c-2.544,-0.764 -4.782,-0.956 -6.714,-0.575c-1.933,0.381 -3.46,1.405 -4.582,3.073c-1.122,1.668 -1.683,4.113 -1.683,7.336c0,4.114 1.028,8.218 3.086,12.312c2.057,4.093 5.18,8.356 9.37,12.789c1.547,1.62 3.08,3.268 4.601,4.944c1.422,1.569 2.65,3.054 3.685,4.457c1.035,1.403 1.852,2.752 2.45,4.047c0.598,1.295 0.898,2.547 0.898,3.755c0.005,0.873 -0.189,1.617 -0.561,2.158c-0.374,0.546 -0.941,0.88 -1.702,1.002c-0.76,0.122 -1.708,0.013 -2.843,-0.325c-1.134,-0.338 -2.463,-0.947 -3.984,-1.825c-2.593,-1.497 -5.162,-3.505 -7.705,-6.024c-2.544,-2.519 -4.9,-5.454 -7.07,-8.807Zm-19.934,-45.875l15.38,8.879l0,-11.371l-42.868,-24.75l0,11.371l15.305,8.836l0,50.629l12.184,7.034l0,-50.629Z" style="fill:#fff;fill-rule:nonzero;" />
		</g>
	</g>
</svg>
